<svg id="Capa_1" enable-background="new 0 0 512 512" height="512" viewBox="0 0 512 512" width="512" xmlns="http://www.w3.org/2000/svg"><g><path d="m505 398.103c3.866 0 7 3.134 7 7v7.77c0 13.6-11.02 24.62-24.61 24.62h-462.77c-13.597 0-24.62-11.023-24.62-24.62v-7.77c0-3.866 3.134-7 7-7h85.357l9.977-10h307l10.315 10z" fill="#98e5fb"/><path d="m487.991 307.735-24.766 53.075-6.346 13.588c-6.758 14.464-21.273 23.705-37.231 23.705h-327.291c-15.958 0-30.473-9.241-37.231-23.705l-6.346-13.588-24.766-53.075z" fill="#be5e2e"/><path d="m75.523 307.735h-51.51l24.766 53.075c.002.001.004.001.005.002l6.341 13.586c6.758 14.464 21.273 23.705 37.231 23.705h51.51c-15.958 0-30.473-9.241-37.231-23.705l-5.271-11.294c14.097-3.704 23.509-10.282 29.954-14.781 1.669-1.174 3.729-2.617 4.471-2.957.165-.031.762-.113 2.019-.113 1.267 0 1.854.082 2.029.113.742.35 2.802 1.782 4.471 2.957 9.406 6.573 25.157 17.585 52.591 17.585 27.444 0 43.186-11.013 52.601-17.596 1.669-1.164 3.729-2.606 4.471-2.946.165-.031.762-.113 2.019-.113 1.267 0 1.854.082 2.029.113.742.34 2.802 1.782 4.471 2.957 9.406 6.573 25.157 17.585 52.591 17.585 27.444 0 43.196-11.013 52.601-17.585 1.669-1.174 3.729-2.617 4.471-2.957.165-.031.762-.113 2.019-.113 1.267 0 1.865.082 2.04.113.732.34 2.792 1.782 4.461 2.957 9.406 6.573 25.157 17.585 52.602 17.585 12.105 0 21.933-2.143 29.948-5.1l24.766-53.075h-412.466z" fill="#ac4f27"/><path d="m487.991 307.735h-463.977l18.688-40.033 12.424-26.63c6.758-14.454 21.273-23.705 37.231-23.705h327.291c15.958 0 30.473 9.251 37.231 23.705l12.424 26.63z" fill="#ffd88a"/><path d="m469.303 267.702c-13.866 3.719-23.159 10.219-29.536 14.68-1.659 1.164-3.719 2.606-4.461 2.946-.175.031-.762.124-2.029.124s-1.854-.093-2.03-.124c-.742-.34-2.802-1.782-4.471-2.946-9.406-6.583-25.147-17.596-52.602-17.596-27.434 0-43.186 11.013-52.591 17.596-1.669 1.164-3.729 2.606-4.471 2.946-.165.031-.762.124-2.03.124-1.267 0-1.854-.093-2.029-.124-.732-.34-2.792-1.782-4.461-2.946-9.406-6.583-25.157-17.596-52.602-17.596s-43.186 11.013-52.591 17.596c-1.669 1.164-3.729 2.606-4.471 2.946-.175.031-.762.124-2.029.124-1.257 0-1.854-.093-2.019-.124-.742-.34-2.802-1.782-4.471-2.946-9.406-6.583-25.157-17.596-52.602-17.596-24.574 0-39.77 8.835-49.432 15.408l18.259-39.123c6.758-14.454 21.273-23.705 37.231-23.705h-51.51c-15.958 0-30.473 9.251-37.231 23.705l-31.112 66.664h51.51 412.467z" fill="#fcca7a"/><path d="m433.277 345.305c-20.954 0-32.421-8.016-40.793-13.871-6.465-4.519-9.709-6.788-18.303-6.788-8.592 0-11.838 2.269-18.3 6.788-8.372 5.854-19.839 13.871-40.793 13.871s-32.421-8.017-40.793-13.871c-6.463-4.519-9.707-6.788-18.299-6.788-8.591 0-11.835 2.269-18.298 6.788-8.371 5.854-19.838 13.871-40.791 13.871s-32.42-8.017-40.792-13.871c-6.463-4.519-9.707-6.788-18.299-6.788s-11.836 2.269-18.299 6.788c-8.373 5.854-19.839 13.871-40.793 13.871-20.953 0-32.42-8.017-40.791-13.871-6.463-4.519-9.707-6.788-18.298-6.788-10.839 0-19.626-8.787-19.626-19.626s8.787-19.626 19.626-19.626c20.953 0 32.42 8.017 40.791 13.871 6.463 4.519 9.707 6.788 18.298 6.788 8.592 0 11.838-2.269 18.3-6.788 8.372-5.854 19.839-13.871 40.792-13.871s32.42 8.017 40.792 13.871c6.463 4.519 9.707 6.788 18.299 6.788 8.591 0 11.835-2.269 18.298-6.788 8.371-5.854 19.838-13.871 40.791-13.871s32.42 8.017 40.792 13.871c6.463 4.519 9.708 6.788 18.3 6.788s11.838-2.269 18.3-6.788c8.372-5.854 19.839-13.871 40.793-13.871s32.422 8.017 40.794 13.871c6.465 4.519 9.709 6.788 18.302 6.788 8.594 0 11.839-2.269 18.303-6.788 8.372-5.855 19.839-13.871 40.793-13.871 10.839 0 19.626 8.787 19.626 19.626s-8.787 19.626-19.626 19.626c-8.593 0-11.839 2.269-18.302 6.788-8.372 5.854-19.838 13.871-40.794 13.871z" fill="#e58758"/><g><g><path d="m256 171.994c-4.268 0-7.726-3.459-7.726-7.726v-47.45c0-23.33 18.98-42.31 42.31-42.31h14.997c4.268 0 7.726 3.459 7.726 7.726 0 4.268-3.459 7.726-7.726 7.726h-14.997c-14.809 0-26.857 12.048-26.857 26.857v47.45c-.001 4.268-3.459 7.727-7.727 7.727z" fill="#ac4f27"/></g></g><path d="m89.441 331.43c4.049 2.843 8.808 6.171 15.03 8.86-6.634 2.874-14.927 5.017-25.755 5.017-20.954 0-32.42-8.015-40.785-13.877-6.47-4.512-9.715-6.779-18.296-6.779-10.847 0-19.635-8.787-19.635-19.635 0-10.838 8.788-19.625 19.635-19.625 16.225 0 26.754 4.811 34.573 9.704-1.72 2.915-2.699 6.305-2.699 9.921 0 10.848 8.788 19.635 19.635 19.635 8.582 0 11.828 2.267 18.297 6.779z" fill="#df7246"/><path d="m76.87 437.483-.03.01h-52.22c-13.597 0-24.62-11.023-24.62-24.62v-7.77c0-3.866 3.134-7 7-7h44.51v14.03c0 14 11.35 25.35 25.36 25.35z" fill="#62dbfa"/><g><path d="m256 254.875c-4.268 0-7.726-3.459-7.726-7.726v-29.778c0-4.268 3.459-7.726 7.726-7.726s7.726 3.459 7.726 7.726v29.778c0 4.268-3.458 7.726-7.726 7.726z" fill="#feb14a"/></g><g><g><g><path d="m325.973 217.367v29.783c0 4.265-3.451 7.726-7.726 7.726-4.265 0-7.726-3.462-7.726-7.726v-29.783z" fill="#feb14a"/></g><g><path d="m201.485 217.367v29.783c0 4.265-3.462 7.726-7.726 7.726-4.275 0-7.726-3.462-7.726-7.726v-29.783z" fill="#feb14a"/></g></g></g><g><circle cx="256.001" cy="184.318" fill="#fe636e" r="33.054"/><path d="m271.457 213.535c-4.605 2.452-9.869 3.832-15.453 3.832-18.255 0-33.059-14.794-33.059-33.048 0-18.255 14.804-33.059 33.059-33.059 5.584 0 10.848 1.381 15.453 3.832-10.477 5.543-17.606 16.555-17.606 29.227 0 12.671 7.129 23.673 17.606 29.216z" fill="#fd4755"/></g></g></svg>